<svg xmlns="http://www.w3.org/2000/svg" viewBox="0 0 841.89 595.28"><title>NIGHTS JOURNEY LOGOMARK OUTLINED 2020</title><g id="Layer_1" data-name="Layer 1"><polygon points="585.46 386.75 585.46 244.02 530.07 244.02 471.71 293 458.79 318.34 458.79 318.34 408.7 318.34 370.01 242.39 311.69 193.46 262.47 193.45 262.47 314.67 287.69 361.14 287.69 231.83 328.82 231.83 367.6 307.93 425.72 356.75 471.85 356.75 514.47 272.73 555.25 272.73 555.27 396.1 555.27 396.1 501.38 396.1 514.24 419.94 545.92 419.94 585.46 386.75"/></g><g id="TYPE"><path d="M291.23,392v-23.8h3.41l9.53,17v-17h3.38V392h-3.38l-9.53-17v17Z"/><path d="M311.28,392v-3.4h6.47v-17h-6.47v-3.37H327.6v3.37h-6.46v17h6.46V392Z"/><path d="M331.33,374.09a5.71,5.71,0,0,1,1.74-4.2,5.9,5.9,0,0,1,4.25-1.72h4.38a5.68,5.68,0,0,1,4.2,1.74,5.76,5.76,0,0,1,1.75,4.22h-3.39a2.49,2.49,0,0,0-.76-1.83,2.43,2.43,0,0,0-1.8-.76h-4.38a2.51,2.51,0,0,0-1.83.76,2.42,2.42,0,0,0-.76,1.79V386a2.39,2.39,0,0,0,.76,1.79,2.54,2.54,0,0,0,1.83.75h4.38a2.58,2.58,0,0,0,2.56-2.57v-4.22h-4.77v-3.4h8.16V386a5.83,5.83,0,0,1-1.75,4.23,5.68,5.68,0,0,1-4.2,1.74h-4.38a5.9,5.9,0,0,1-4.25-1.72,5.77,5.77,0,0,1-1.74-4.22Z"/><path d="M351.37,392v-23.8h3.41v10.21h9.53V368.17h3.38V392h-3.38V381.78h-9.53V392Z"/><path d="M371.42,371.54v-3.41h16.32v3.41h-6.46V392h-3.39V371.54Z"/><path d="M394.87,386a2.39,2.39,0,0,0,.76,1.79,2.52,2.52,0,0,0,1.83.75h4.38A2.56,2.56,0,0,0,404.4,386c0-4.72-12.94-4.3-12.94-11.87a6,6,0,0,1,6-6h4.42a5.94,5.94,0,0,1,5.94,5.92H404.4a2.61,2.61,0,0,0-2.56-2.55h-4.42a2.46,2.46,0,0,0-1.8.76,2.52,2.52,0,0,0-.75,1.83c0,4.71,12.95,4.3,12.95,11.87a6,6,0,0,1-6,6h-4.38a5.83,5.83,0,0,1-4.24-1.74,5.7,5.7,0,0,1-1.76-4.2Z"/><path d="M354.78,414a2.54,2.54,0,0,0,2.55,2.57h4.39a2.5,2.5,0,0,0,1.82-.75,2.36,2.36,0,0,0,.77-1.79V399.5H351.37v-3.37h16.32V414a5.71,5.71,0,0,1-1.76,4.22,5.81,5.81,0,0,1-4.21,1.72h-4.39a5.75,5.75,0,0,1-4.21-1.74,5.83,5.83,0,0,1-1.75-4.23Z"/><path d="M371.42,402.05a5.71,5.71,0,0,1,1.74-4.2,5.85,5.85,0,0,1,4.22-1.72h4.42a5.77,5.77,0,0,1,4.2,1.72,5.71,5.71,0,0,1,1.74,4.2V414a5.82,5.82,0,0,1-1.74,4.23,5.71,5.71,0,0,1-4.2,1.74h-4.42a5.94,5.94,0,0,1-6-6Zm3.4,11.91a2.56,2.56,0,0,0,2.56,2.57h4.42a2.58,2.58,0,0,0,2.55-2.57V402.05a2.35,2.35,0,0,0-.76-1.77,2.45,2.45,0,0,0-1.79-.75h-4.42a2.51,2.51,0,0,0-1.81.75,2.37,2.37,0,0,0-.75,1.77Z"/><path d="M391.47,396.13h3.4V414a2.56,2.56,0,0,0,2.56,2.57h4.41A2.58,2.58,0,0,0,404.4,414V396.13h3.39V414a5.79,5.79,0,0,1-1.75,4.23,5.68,5.68,0,0,1-4.2,1.74h-4.41a5.75,5.75,0,0,1-4.22-1.74,5.82,5.82,0,0,1-1.74-4.23Z"/><path d="M411.51,419.93v-23.8h10.38a5.94,5.94,0,0,1,5.94,6v1.69a5.77,5.77,0,0,1-1.74,4.22,5.71,5.71,0,0,1-4.2,1.74H419.1l8.6,10.19h-4.22l-8.56-10.19v10.19Zm3.41-13.59h7a2.6,2.6,0,0,0,2.56-2.56v-1.69a2.46,2.46,0,0,0-.77-1.83,2.4,2.4,0,0,0-1.79-.76h-7Z"/><path d="M431.56,419.93v-23.8H435l9.53,17v-17h3.39v23.8h-3.39l-9.53-17v17Z"/><path d="M451.61,419.93v-23.8h16.31v3.4H455v6.81h12.91v3.4H455v6.79h12.91v3.4Z"/><path d="M471.65,396.13h3.85l4.32,8.13,4.31-8.13H488L481.51,408v11.93h-3.39V408Z"/></g></svg>